<?xml version="1.0" standalone="no"?>
<!DOCTYPE svg PUBLIC "-//W3C//DTD SVG 20010904//EN"
 "http://www.w3.org/TR/2001/REC-SVG-20010904/DTD/svg10.dtd">
<svg version="1.0" xmlns="http://www.w3.org/2000/svg"
 width="624.000000pt" height="624.000000pt" viewBox="0 0 624.000000 624.000000"
 preserveAspectRatio="xMidYMid meet">
<metadata>
Created by potrace 1.11, written by Peter Selinger 2001-2013
</metadata>
<g transform="translate(0.000000,624.000000) scale(0.100000,-0.100000)"
fill="#000000" stroke="none">
<path d="M1950 6221 c-134 -29 -214 -135 -290 -381 -50 -163 -45 -162 -106
-11 -87 214 -134 265 -233 258 -47 -3 -59 -9 -82 -37 -36 -42 -47 -107 -43
-235 5 -164 36 -291 128 -523 49 -124 55 -145 44 -165 -7 -12 -17 -69 -23
-127 l-10 -105 -111 3 c-125 4 -160 -5 -211 -58 -66 -68 -128 -249 -110 -322
12 -44 46 -69 91 -66 l39 3 3 90 c3 97 18 147 56 182 35 33 70 37 148 18 65
-16 70 -19 70 -44 0 -27 -56 -439 -65 -479 -5 -20 -10 -17 -60 37 -80 85 -151
116 -270 115 -73 0 -98 -4 -132 -22 -71 -37 -125 -129 -143 -240 -21 -128 62
-317 157 -358 l32 -14 -67 -67 c-37 -38 -88 -98 -114 -135 -47 -65 -128 -220
-128 -244 0 -7 -15 -34 -33 -60 -98 -146 -295 -484 -405 -695 l-82 -156 0
-1191 0 -1192 1104 0 1104 0 6 103 c19 294 35 402 80 520 27 73 80 258 96 340
6 31 13 57 15 57 2 0 17 -12 32 -26 26 -24 34 -26 105 -22 66 3 82 7 120 33
24 17 50 44 58 60 20 40 18 112 -5 155 -13 25 -14 35 -6 38 7 2 40 23 74 46
81 54 118 113 124 198 8 111 -42 155 -206 181 l-82 12 49 37 c64 49 181 169
238 243 25 33 68 106 96 162 47 96 53 103 87 112 20 4 97 23 171 41 74 18 217
54 316 81 100 26 203 51 230 55 27 3 60 8 74 10 14 2 41 6 60 9 19 4 159 9
310 12 265 4 329 0 445 -30 11 -3 32 -8 47 -12 18 -5 43 -28 72 -69 99 -139
261 -226 421 -226 61 0 78 4 110 26 21 14 46 35 56 47 20 25 18 26 52 -29 27
-44 51 -108 62 -165 l7 -36 -149 1 c-117 0 -161 -3 -208 -18 -77 -24 -181 -79
-222 -118 -30 -29 -31 -32 -18 -58 22 -42 122 -117 200 -149 130 -54 310 -38
388 34 15 14 27 23 27 20 0 -274 8 -425 24 -472 28 -78 63 -114 116 -122 62
-9 91 -3 97 19 3 11 15 20 26 22 51 7 62 96 44 381 -10 173 4 243 33 165 37
-102 47 -123 70 -138 14 -10 38 -21 53 -24 25 -6 35 0 87 55 68 70 150 181
150 202 0 32 -31 85 -77 128 -48 46 -182 140 -278 194 -97 55 -107 72 -130
224 l-15 101 35 35 c19 20 37 50 40 68 9 46 -1 488 -10 512 -12 28 -39 46
-114 75 l-65 26 -11 59 c-13 72 -30 100 -67 116 -27 11 -121 8 -163 -6 -18 -5
-23 4 -49 77 -15 46 -34 93 -42 104 -13 22 -12 22 69 26 142 6 236 67 310 199
53 94 78 198 69 279 -6 57 -10 65 -32 71 -73 20 -145 -7 -255 -98 l-64 -53 6
79 c3 43 3 90 -1 105 -10 41 -44 66 -92 66 -35 0 -47 -5 -73 -35 -40 -46 -61
-90 -96 -197 -15 -49 -31 -88 -36 -88 -10 0 -20 40 -55 225 -4 22 -8 84 -8
137 -1 119 -12 137 -67 114 -20 -8 -70 -24 -112 -35 -154 -40 -177 -64 -177
-184 0 -78 59 -401 84 -459 12 -29 109 -156 173 -228 12 -13 31 -42 42 -65 24
-47 84 -215 79 -219 -1 -1 -24 -19 -49 -39 l-46 -37 -94 44 c-52 24 -134 59
-184 77 -49 18 -97 39 -106 46 -8 7 -30 13 -47 13 -17 0 -71 9 -119 21 -94 22
-406 41 -473 28 -19 -4 -70 -10 -113 -13 l-78 -7 53 63 c58 69 107 167 135
268 13 50 17 105 18 240 0 158 -2 182 -23 243 -67 193 -182 255 -393 212 -90
-18 -174 -55 -379 -169 -169 -93 -272 -136 -325 -136 -11 0 -41 20 -66 43
l-45 42 29 30 c71 74 109 150 147 290 61 228 48 568 -27 718 -43 86 -125 147
-197 147 -10 0 6 23 46 65 90 93 118 150 118 236 0 78 -17 105 -71 116 -16 3
-28 9 -27 12 2 4 27 54 56 112 47 93 54 114 63 197 5 52 6 104 3 117 -7 30
-54 49 -101 42 -47 -8 -183 -74 -248 -121 -212 -153 -289 -206 -296 -206 -3 0
0 30 7 68 35 181 7 290 -86 328 -42 18 -141 26 -190 15z m-389 -1117 l12 -106
34 7 c41 7 79 28 196 106 49 33 94 59 102 59 13 0 22 -57 28 -179 3 -85 20
-87 114 -15 80 62 119 86 163 99 l25 7 -26 -28 c-70 -75 -149 -239 -149 -307
0 -28 -14 -27 -101 8 -93 38 -279 88 -397 108 l-77 13 3 44 c1 25 10 73 18
106 15 56 15 66 1 115 -18 60 -16 69 18 69 22 0 24 -5 36 -106z m1156 -35
c117 -110 125 -508 14 -746 -53 -113 -163 -186 -255 -169 -76 14 -126 127
-142 321 -14 177 80 480 178 572 60 57 156 67 205 22z m-1050 -419 c136 -26
359 -81 368 -92 1 -2 10 -53 19 -115 40 -264 80 -347 237 -488 32 -29 36 -30
133 -30 86 0 108 3 145 23 l44 23 51 -49 c114 -111 193 -118 356 -34 344 178
410 209 476 225 100 24 194 23 226 -3 81 -63 112 -337 58 -511 -83 -271 -410
-429 -861 -417 -124 3 -150 6 -185 25 -77 41 -138 122 -220 291 -77 161 -99
194 -146 218 -60 31 -148 2 -148 -50 0 -13 30 -70 66 -127 103 -161 121 -193
129 -230 20 -97 126 -212 252 -272 89 -42 194 -122 335 -256 68 -63 99 -105
113 -149 l7 -23 -39 16 c-81 35 -441 178 -551 220 -65 24 -135 51 -157 61 -48
20 -540 186 -850 286 -211 68 -225 71 -338 76 -134 5 -146 -1 -147 -69 0 -52
21 -65 140 -84 58 -9 124 -21 147 -27 39 -9 42 -12 37 -38 -7 -34 21 -100 76
-179 63 -90 147 -141 231 -141 31 0 43 6 67 36 l29 35 12 -58 c22 -111 64
-169 157 -214 52 -24 74 -29 138 -29 l77 0 42 43 c28 28 50 64 67 110 23 63
27 67 50 62 43 -11 568 -209 584 -221 14 -10 8 -34 -42 -190 -59 -181 -77
-224 -90 -224 -4 0 -16 14 -25 30 -30 50 -67 63 -171 58 -230 -12 -412 -150
-589 -447 -31 -52 -71 -127 -89 -167 -30 -67 -35 -73 -68 -79 -19 -3 -43 -8
-52 -11 -13 -4 -18 0 -18 14 0 27 -70 229 -118 340 -87 199 -189 335 -287 381
-99 47 -281 15 -417 -72 -31 -20 -90 -68 -131 -106 l-74 -71 -30 43 c-53 74
-60 97 -72 237 -32 391 -37 669 -16 800 23 137 59 288 76 323 39 77 107 172
146 203 21 17 94 70 163 119 153 108 170 123 170 151 0 52 -76 67 -152 30
-145 -71 -223 -34 -264 125 -38 145 36 276 164 294 79 11 115 -13 215 -141 64
-82 111 -124 137 -124 59 0 150 230 175 439 8 69 17 152 21 184 6 53 9 58 28
53 12 -4 94 -20 183 -36z m3837 -1481 c3 -17 6 -45 6 -61 0 -66 48 -110 146
-137 l40 -11 -17 -67 c-24 -90 -23 -145 1 -193 23 -44 26 -103 8 -117 -19 -15
-231 -88 -245 -85 -7 2 -20 -4 -30 -13 -10 -9 -28 -24 -41 -33 -15 -11 -28
-38 -38 -77 -26 -104 -27 -105 -110 -105 -90 0 -168 27 -211 72 -28 30 -92
124 -118 173 -14 26 -89 53 -204 72 -119 19 -691 31 -724 15 -12 -5 -60 -18
-107 -27 -90 -18 -304 -71 -330 -82 -8 -3 -22 -7 -30 -9 -19 -4 -385 -113
-406 -121 -12 -4 -15 0 -12 23 3 28 4 28 66 25 61 -2 64 -1 102 37 46 45 48
59 25 172 -25 120 -55 200 -90 239 l-33 36 32 2 c36 2 119 39 190 85 54 35
182 64 491 113 269 43 431 28 730 -65 128 -39 253 -85 332 -121 106 -48 107
-48 134 10 20 40 43 65 126 130 153 119 211 150 279 151 27 0 32 -4 38 -31z
m-3891 -186 c49 -24 87 -47 85 -51 -30 -61 -44 -82 -55 -82 -31 0 -163 144
-163 177 0 19 23 11 133 -44z m422 -173 l140 -47 -2 -42 c-1 -24 -8 -50 -15
-58 -20 -25 -73 -43 -123 -43 -41 0 -47 3 -76 43 -30 40 -78 135 -94 187 -6
20 -5 22 11 15 11 -4 82 -29 159 -55z m605 -807 c-1 -44 -31 -90 -86 -130 -55
-42 -56 -42 -197 -107 -138 -63 -207 -124 -207 -180 0 -35 87 -48 208 -31 42
5 52 4 52 -7 0 -12 10 -13 48 -8 26 4 106 8 178 9 109 2 133 -1 144 -14 11
-13 11 -22 -3 -50 -23 -48 -53 -64 -152 -80 -48 -8 -101 -23 -119 -35 -30 -18
-86 -86 -86 -103 0 -4 38 -25 85 -47 58 -27 89 -47 96 -64 17 -36 5 -56 -32
-56 -25 0 -45 14 -104 71 -58 56 -78 69 -94 64 -43 -13 -91 -126 -157 -370
-41 -154 -87 -256 -138 -306 -20 -20 -87 -63 -148 -95 -61 -33 -131 -70 -157
-84 -40 -22 -58 -25 -141 -24 -122 0 -226 25 -279 68 -44 34 -129 132 -241
276 -40 52 -79 100 -85 105 -15 12 -55 90 -55 106 0 12 56 64 160 150 127 104
226 188 280 239 57 53 171 117 189 106 15 -10 63 -103 100 -196 l34 -84 -33
-130 c-42 -170 -48 -236 -25 -260 39 -39 60 -4 105 181 12 48 28 98 36 110 8
12 14 37 14 56 0 18 16 81 35 140 19 59 35 117 35 129 0 13 10 39 21 58 12 19
30 58 39 85 32 93 163 288 243 362 119 109 253 167 400 172 34 1 37 -1 37 -26z"/>
<path d="M2570 4993 c-77 -51 -108 -94 -145 -202 -13 -36 -26 -74 -30 -83 -5
-13 -2 -18 11 -18 13 0 36 29 74 97 30 53 74 123 98 155 23 32 42 60 42 63 0
10 -27 4 -50 -12z"/>
<path d="M2723 4428 c-6 -7 -20 -32 -31 -54 -22 -43 -72 -88 -129 -118 -24
-12 -33 -23 -33 -42 0 -14 3 -24 8 -22 73 33 123 63 135 81 8 13 27 53 42 91
26 65 29 90 8 64z"/>
<path d="M846 4174 c-12 -32 -5 -65 18 -89 22 -21 22 -24 5 -28 -23 -6 -35
-51 -23 -86 9 -23 16 -27 74 -32 36 -4 78 -12 95 -18 40 -17 73 -6 81 25 15
61 -71 199 -143 230 -44 19 -99 18 -107 -2z"/>
<path d="M1539 3966 c-39 -22 -59 -60 -59 -108 1 -69 37 -98 124 -98 113 0
169 129 84 193 -34 26 -114 32 -149 13z"/>
<path d="M1824 3749 c-31 -15 -53 -59 -60 -121 -6 -48 -4 -57 19 -83 23 -27
32 -30 98 -33 65 -3 78 -1 109 20 47 32 62 63 57 122 -4 40 -10 55 -36 78 -28
25 -38 28 -99 27 -37 0 -76 -5 -88 -10z"/>
<path d="M1300 3650 c-13 -13 -20 -33 -20 -60 0 -34 4 -42 26 -50 43 -17 99
-12 128 11 20 16 26 29 26 60 0 33 -4 41 -26 49 -44 17 -112 12 -134 -10z"/>
<path d="M1560 3454 c-26 -22 -31 -33 -28 -63 3 -34 5 -36 42 -39 75 -6 116
18 116 68 0 59 -76 79 -130 34z"/>
<path d="M913 2878 c-28 -13 -37 -40 -29 -84 13 -64 88 -87 118 -36 24 40 8
96 -32 117 -16 8 -30 15 -32 14 -2 0 -13 -5 -25 -11z"/>
<path d="M1205 2433 c-12 -18 -15 -31 -8 -42 14 -22 25 -23 52 -2 19 14 22 24
17 45 -8 34 -38 34 -61 -1z"/>
<path d="M864 2440 c-34 -13 -64 -59 -64 -97 0 -41 32 -106 62 -127 27 -19 79
-21 96 -4 7 7 12 42 12 85 0 61 -4 80 -25 113 -25 40 -41 46 -81 30z"/>
<path d="M5278 4603 c-21 -2 -38 -8 -38 -14 0 -5 29 -42 64 -82 34 -40 68 -83
75 -95 7 -13 11 -57 9 -112 -2 -94 5 -115 38 -108 16 3 20 17 27 88 9 103 -6
207 -37 252 -20 31 -82 80 -95 76 -3 -1 -23 -3 -43 -5z"/>
<path d="M4990 4565 c0 -19 7 -26 28 -31 43 -11 115 -50 138 -76 12 -12 40
-60 63 -105 43 -86 66 -103 77 -57 10 37 -49 153 -108 215 -54 56 -99 79 -158
79 -36 0 -40 -2 -40 -25z"/>
<path d="M4650 1953 c-43 -30 -49 -45 -50 -124 0 -93 20 -155 68 -209 29 -33
46 -43 80 -47 45 -6 57 8 22 27 -29 15 -78 106 -91 169 -10 49 -9 58 15 111
37 82 17 115 -44 73z"/>
<path d="M4444 1657 c-13 -34 61 -170 110 -202 25 -17 116 -31 116 -18 0 4
-23 18 -49 30 -56 24 -87 65 -115 151 -13 39 -22 52 -37 52 -11 0 -22 -6 -25
-13z"/>
</g>
</svg>
