<?xml version="1.0" encoding="utf-8"?>
<!-- Generator: Adobe Illustrator 19.0.0, SVG Export Plug-In . SVG Version: 6.00 Build 0)  -->
<svg version="1.1" id="Layer_1" xmlns="http://www.w3.org/2000/svg" xmlns:xlink="http://www.w3.org/1999/xlink" x="0px" y="0px"
	 viewBox="0 0 1018.6229858 501" style="enable-background:new 0 0 1018.6229858 501;" xml:space="preserve">
<style type="text/css">
	.st0{fill:#404137;}
	.st1{fill:#83CD29;}
</style>
<g id="x_7_">
	<g id="XMLID_36_">
		<path id="XMLID_39_" class="st0" d="M830.5061646,197.9075928l41.0386963,58.2454834l8.1746826,11.6021729l8.1746826-11.6021729
			l41.0386353-58.2454834l75.2109375,43.4230652l-67.4630737,95.749176l-4.0581665,5.7597351l4.0581665,5.7597351
			l67.4630737,95.7491455l-75.2108765,43.4230957l-41.0386963-58.2455444l-8.1746826-11.6021729l-8.1746826,11.6021729
			l-41.0386963,58.2454834l-75.2109375-43.4230347l67.4630737-95.7491455l4.0581665-5.7597351l-4.0581665-5.7597351
			l-67.4630737-95.749176L830.5061646,197.9075928 M926.0205078,184.6791382l-46.3009644,65.7141724l-46.3010254-65.7141724
			l-92.6021729,53.4638672l73.7672729,104.6965637l-73.7672729,104.6965027l92.6021729,53.4638672l46.3010254-65.7141724
			L926.0205688,501l92.6021118-53.4639282l-73.7672729-104.6965027l73.7672729-104.6965637L926.0205078,184.6791382
			L926.0205078,184.6791382z"/>
	</g>
</g>
<path id="XMLID_62_" class="st0" d="M648.2141113,264.7156982l-138.9029846-80.1956787l-138.9030151,80.1956787
	l0.000061,155.9294434l138.9029541,80.1957397l138.9030457-80.1957397L648.2141113,264.7156982z M385.4467468,417.7806396
	l105.8388672-59.274292v-11.4614258l-110.8774414,62.0961304l-0.000061-138.6518555l123.9028931-71.5353394v117.7383423h10.0000305
	V198.9536743l123.9030762,71.5355225l0.000061,138.6517944l-112.4285278-62.9650879v11.4614258l107.3900757,60.1432495
	l-123.8645935,71.5133057L385.4467468,417.7806396z"/>
<g id="XMLID_915_">
	<polygon id="XMLID_1025_" class="st1" points="511.8114929,344.1453857 511.8114929,393.956543 555.6121826,368.6682739 
		555.6121216,319.6152344 	"/>
	<polygon id="XMLID_1209_" class="st1" points="509.3110046,339.8140869 553.1431885,315.2662964 509.3111267,289.9598389 
		465.4791565,315.2662354 	"/>
	<polygon id="XMLID_1210_" class="st1" points="506.8114929,344.1459351 463.0101013,319.6151123 463.0101624,368.6682739 
		506.8114929,393.9569702 	"/>
</g>
<g id="b">
	<g id="XMLID_144_">
		<path id="XMLID_145_" class="st0" d="M82.6021729,17.3205566v193.9313049v17.3205566l15-8.6602783l41.300827-23.8450623
			l128.9029999,74.4221191v144.3824463l-128.9030151,74.4221802L9.9999914,414.8716431V292.6106873v-27.8950195V59.2373962
			L82.6021729,17.3205566 M138.9029846,406.9475708l5-2.8867188l46.3010101-26.7318726l5-2.8867798v-5.7734985v-51.9764709
			v-5.773468l-5-2.8868103l-46.3010101-26.7319946l-5-2.8867188l-5,2.8867188l-46.3009949,26.7319946l-5,2.8868103v5.773468
			v51.9764709v5.7734985l5,2.8867798l46.3009949,26.7318726L138.9029846,406.9475708 M92.6021729,0.0000458L-0.0000082,53.4638672
			v211.2518005v27.8950195v128.0344543l138.9029999,80.1957397l138.9030151-80.1957397V264.7156677L138.9029846,184.52005
			c0,0-25.7227173,14.8509827-46.3008118,26.7318115V0.0000458L92.6021729,0.0000458z M138.9029846,395.4005737
			l-46.3009949-26.7318726v-51.9764709l46.3009949-26.7319946l46.3010101,26.7319946v51.9764709L138.9029846,395.4005737
			L138.9029846,395.4005737z"/>
	</g>
</g>
<g id="XMLID_7_">
	<rect id="XMLID_11_" x="933.6223755" class="st1" width="25" height="25"/>
	<rect id="XMLID_9_" x="963.6226807" y="29.9996719" class="st1" width="25" height="25"/>
	<rect id="XMLID_8_" x="993.6226807" y="59.9996719" class="st1" width="25" height="25"/>
	<rect id="XMLID_5_" x="963.6226807" y="89.9996719" class="st1" width="25" height="25"/>
	<rect id="XMLID_3_" x="933.6223755" y="119.9996719" class="st1" width="25" height="25"/>
</g>
<g id="XMLID_4_">
	<rect id="XMLID_130_" x="183.6216125" class="st0" width="25" height="25"/>
	<rect id="XMLID_129_" x="213.6219482" class="st0" width="25" height="25"/>
	<rect id="XMLID_128_" x="243.6219482" class="st0" width="25" height="25"/>
	<rect id="XMLID_127_" x="183.6216125" y="29.9996719" class="st0" width="25" height="25"/>
	<rect id="XMLID_126_" x="183.6216125" y="59.9996719" class="st0" width="25" height="25"/>
	<rect id="XMLID_125_" x="213.6219482" y="59.9996719" class="st0" width="25" height="25"/>
	<rect id="XMLID_124_" x="243.6219482" y="59.9996719" class="st0" width="25" height="25"/>
	<rect id="XMLID_123_" x="243.6219482" y="89.9996719" class="st0" width="25" height="25"/>
	<rect id="XMLID_122_" x="183.6216125" y="119.9996719" class="st0" width="25" height="25"/>
	<rect id="XMLID_121_" x="213.6219482" y="119.9996719" class="st0" width="25" height="25"/>
	<rect id="XMLID_120_" x="243.6219482" y="119.9996719" class="st0" width="25" height="25"/>
	<rect id="XMLID_119_" x="308.622345" class="st0" width="25" height="25"/>
	<rect id="XMLID_118_" x="338.6226807" class="st0" width="25" height="25"/>
	<rect id="XMLID_117_" x="368.6226807" class="st0" width="25" height="25"/>
	<rect id="XMLID_116_" x="308.622345" y="29.9996719" class="st0" width="25" height="25"/>
	<rect id="XMLID_115_" x="368.6226807" y="29.9996719" class="st0" width="25" height="25"/>
	<rect id="XMLID_114_" x="308.622345" y="59.9996719" class="st0" width="25" height="25"/>
	<rect id="XMLID_113_" x="368.6226807" y="59.9996719" class="st0" width="25" height="25"/>
	<rect id="XMLID_112_" x="308.622345" y="89.9996719" class="st0" width="25" height="25"/>
	<rect id="XMLID_111_" x="368.6226807" y="89.9996719" class="st0" width="25" height="25"/>
	<rect id="XMLID_110_" x="308.622345" y="119.9996719" class="st0" width="25" height="25"/>
	<rect id="XMLID_109_" x="338.6226807" y="119.9996719" class="st0" width="25" height="25"/>
	<rect id="XMLID_108_" x="368.6226807" y="119.9996719" class="st0" width="25" height="25"/>
	<rect id="XMLID_107_" x="433.622345" class="st0" width="25" height="25"/>
	<rect id="XMLID_106_" x="493.6226807" class="st0" width="25" height="25"/>
	<rect id="XMLID_105_" x="433.622345" y="29.9996719" class="st0" width="25" height="25"/>
	<rect id="XMLID_104_" x="493.6226807" y="29.9996719" class="st0" width="25" height="25"/>
	<rect id="XMLID_103_" x="433.622345" y="59.9996719" class="st0" width="25" height="25"/>
	<rect id="XMLID_102_" x="493.6226807" y="59.9996719" class="st0" width="25" height="25"/>
	<rect id="XMLID_101_" x="433.622345" y="89.9996719" class="st0" width="25" height="25"/>
	<rect id="XMLID_100_" x="493.6226807" y="89.9996719" class="st0" width="25" height="25"/>
	<rect id="XMLID_99_" x="433.622345" y="119.9996719" class="st0" width="25" height="25"/>
	<rect id="XMLID_98_" x="463.6226807" y="119.9996719" class="st0" width="25" height="25"/>
	<rect id="XMLID_97_" x="493.6226807" y="119.9996719" class="st0" width="25" height="25"/>
	<rect id="XMLID_96_" x="558.6223755" class="st0" width="25" height="25"/>
	<rect id="XMLID_95_" x="588.6226807" class="st0" width="25" height="25"/>
	<rect id="XMLID_94_" x="558.6223755" y="29.9996719" class="st0" width="25" height="25"/>
	<rect id="XMLID_91_" x="618.6226807" y="29.9996719" class="st0" width="25" height="25"/>
	<rect id="XMLID_90_" x="558.6223755" y="59.9996719" class="st0" width="25" height="25"/>
	<rect id="XMLID_88_" x="588.6226807" y="59.9996719" class="st0" width="25" height="25"/>
	<rect id="XMLID_87_" x="558.6223755" y="89.9996719" class="st0" width="25" height="25"/>
	<rect id="XMLID_86_" x="618.6226807" y="89.9996719" class="st0" width="25" height="25"/>
	<rect id="XMLID_85_" x="558.6223755" y="119.9996719" class="st0" width="25" height="25"/>
	<rect id="XMLID_66_" x="618.6226807" y="119.9996719" class="st0" width="25" height="25"/>
	<rect id="XMLID_65_" x="713.6226807" class="st0" width="25" height="25"/>
	<rect id="XMLID_63_" x="743.6226807" class="st0" width="25" height="25"/>
	<rect id="XMLID_61_" x="683.6223755" y="29.9996719" class="st0" width="25" height="25"/>
	<rect id="XMLID_59_" x="683.6223755" y="59.9996719" class="st0" width="25" height="25"/>
	<rect id="XMLID_58_" x="683.6223755" y="89.9996719" class="st0" width="25" height="25"/>
	<rect id="XMLID_56_" x="713.6226807" y="119.9996719" class="st0" width="25" height="25"/>
	<rect id="XMLID_55_" x="743.6226807" y="119.9996719" class="st0" width="25" height="25"/>
	<rect id="XMLID_54_" x="808.6223755" class="st0" width="25" height="25"/>
	<rect id="XMLID_53_" x="838.6226807" class="st0" width="25" height="25"/>
	<rect id="XMLID_52_" x="868.6226807" class="st0" width="25" height="25"/>
	<rect id="XMLID_49_" x="808.6223755" y="29.9996719" class="st0" width="25" height="25"/>
	<rect id="XMLID_40_" x="808.6223755" y="59.9996719" class="st0" width="25" height="25"/>
	<rect id="XMLID_37_" x="838.6226807" y="59.9996719" class="st0" width="25" height="25"/>
	<rect id="XMLID_18_" x="808.6223755" y="89.9996719" class="st0" width="25" height="25"/>
	<rect id="XMLID_17_" x="808.6223755" y="119.9996719" class="st0" width="25" height="25"/>
	<rect id="XMLID_13_" x="838.6226807" y="119.9996719" class="st0" width="25" height="25"/>
	<rect id="XMLID_12_" x="868.6226807" y="119.9996719" class="st0" width="25" height="25"/>
</g>
</svg>
