<?xml version="1.0" encoding="UTF-8" standalone="no"?>
<!-- Generator: Adobe Illustrator 19.0.0, SVG Export Plug-In . SVG Version: 6.00 Build 0)  -->

<svg
   xmlns:dc="http://purl.org/dc/elements/1.1/"
   xmlns:cc="http://creativecommons.org/ns#"
   xmlns:rdf="http://www.w3.org/1999/02/22-rdf-syntax-ns#"
   xmlns:svg="http://www.w3.org/2000/svg"
   xmlns="http://www.w3.org/2000/svg"
   xmlns:sodipodi="http://sodipodi.sourceforge.net/DTD/sodipodi-0.dtd"
   xmlns:inkscape="http://www.inkscape.org/namespaces/inkscape"
   version="1.1"
   id="Layer_1"
   x="0px"
   y="0px"
   viewBox="0 0 1518.6228 1001"
   xml:space="preserve"
   inkscape:version="0.91 r13725"
   sodipodi:docname="sourcebox-bg2.svg"
   width="1214.8982pt"
   height="800.79999pt"><sodipodi:namedview
     pagecolor="#ffffff"
     bordercolor="#666666"
     borderopacity="1"
     objecttolerance="10"
     gridtolerance="10"
     guidetolerance="10"
     inkscape:pageopacity="0"
     inkscape:pageshadow="2"
     inkscape:window-width="1680"
     inkscape:window-height="995"
     id="namedview84"
     showgrid="false"
     inkscape:zoom="0.32758355"
     inkscape:cx="-473.85455"
     inkscape:cy="428.02158"
     inkscape:window-x="0"
     inkscape:window-y="0"
     inkscape:window-maximized="1"
     inkscape:current-layer="Layer_1"
     fit-margin-top="200"
     fit-margin-left="200"
     fit-margin-right="200"
     fit-margin-bottom="200"
     units="pt" /><metadata
     id="metadata88"><rdf:RDF><cc:Work
         rdf:about=""><dc:format>image/svg+xml</dc:format><dc:type
           rdf:resource="http://purl.org/dc/dcmitype/StillImage" /><dc:title></dc:title></cc:Work></rdf:RDF></metadata><defs
     id="defs86" /><style
     id="style3"
     type="text/css">
	.st0{fill:#404137;}
	.st1{fill:#83CD29;}
</style><g
     transform="translate(250.00001,250)"
     id="x_7_"
     style="fill:#000000;fill-opacity:0.06707315;stroke:none;stroke-opacity:1"><g
       id="XMLID_36_"
       style="fill:#000000;fill-opacity:0.06707315;stroke:none;stroke-opacity:1"><path
         style="fill:#000000;fill-opacity:0.06707315;stroke:none;stroke-opacity:1"
         inkscape:connector-curvature="0"
         d="m 830.50616,197.90759 41.0387,58.24549 8.17468,11.60217 8.17469,-11.60217 41.03863,-58.24549 75.21094,43.42307 -67.46307,95.74917 -4.05817,5.75974 4.05817,5.75973 67.46307,95.74915 -75.21088,43.4231 -41.03869,-58.24555 -8.17469,-11.60217 -8.17468,11.60217 -41.0387,58.24548 -75.21093,-43.42303 67.46307,-95.74915 4.05817,-5.75973 -4.05817,-5.75974 -67.46307,-95.74917 75.21093,-43.42307 m 95.51435,-13.22845 -46.30097,65.71417 -46.30102,-65.71417 -92.60217,53.46387 73.76727,104.69656 -73.76727,104.6965 92.60217,53.46387 46.30102,-65.71417 46.30103,65.71423 92.60213,-53.46393 -73.76729,-104.6965 73.76729,-104.69656 -92.60219,-53.46387 0,0 z"
         class="st0"
         id="XMLID_39_" /></g></g><g
     transform="translate(250.00001,250)"
     id="XMLID_915_"
     style="fill:#000000;fill-opacity:0.06707315;stroke:none;stroke-opacity:1"><path
       id="XMLID_1210_"
       style="fill:#000000;fill-opacity:0.06707315;stroke:none;stroke-opacity:1"
       d="m 506.81149,393.95697 0,-49.81103 -43.80139,-24.53083 6e-5,49.05316 z m -41.33233,-78.69073 43.83184,24.54785 43.83219,-24.54779 -43.83206,-25.30646 z m 90.13296,4.34899 -43.80063,24.53016 0,49.81115 43.80069,-25.28827 z m 92.60199,-54.89953 -138.90298,-80.19568 -138.90302,80.19568 6e-5,155.92944 138.90296,80.19574 138.90304,-80.19574 -6e-5,-155.92944 z m -262.76736,153.06494 105.83886,-59.27429 0,-11.46143 -110.87744,62.09613 -6e-5,-138.65185 123.90289,-71.53534 0,117.73834 10.00004,0 0,-117.73853 123.90307,71.53553 6e-5,138.65179 -112.42853,-62.96509 0,11.46143 107.39008,60.14325 -123.86459,71.5133 -123.86438,-71.51324 z"
       inkscape:connector-curvature="0" /></g><g
     transform="translate(250.00001,250)"
     id="b"
     style="fill:#000000;fill-opacity:0.06707315;stroke:none;stroke-opacity:1"><g
       id="XMLID_144_"
       style="fill:#000000;fill-opacity:0.06707315;stroke:none;stroke-opacity:1"><path
         style="fill:#000000;fill-opacity:0.06707315;stroke:none;stroke-opacity:1"
         inkscape:connector-curvature="0"
         d="m 82.602173,17.320557 0,193.931303 0,17.32056 15,-8.66028 41.300827,-23.84506 128.903,74.42212 0,144.38244 -128.90302,74.42218 -128.9029886,-74.42218 0,-122.26095 0,-27.89502 0,-205.478274 72.6021816,-41.916839 m 56.300807,389.627013 5,-2.88672 46.30101,-26.73187 5,-2.88678 0,-5.7735 0,-51.97647 0,-5.77347 -5,-2.88681 -46.30101,-26.73199 -5,-2.88672 -5,2.88672 -46.30099,26.73199 -5,2.88681 0,5.77347 0,51.97647 0,5.7735 5,2.88678 46.30099,26.73187 5,2.88672 M 92.602173,4.58e-5 -8.2e-6,53.463867 l 0,211.251803 0,27.89502 0,128.03445 138.9029982,80.19574 138.90302,-80.19574 0,-155.92947 -138.90303,-80.19562 c 0,0 -25.72271,14.85098 -46.300807,26.73181 l 0,-211.2518142 0,0 z M 138.90298,395.40057 92.60199,368.6687 l 0,-51.97647 46.30099,-26.73199 46.30101,26.73199 0,51.97647 -46.30101,26.73187 0,0 z"
         class="st0"
         id="XMLID_145_" /></g></g><g
     transform="translate(250.00001,250)"
     id="XMLID_7_"
     style="fill:#000000;fill-opacity:0.06707315;stroke:none;stroke-opacity:1"><rect
       style="fill:#000000;fill-opacity:0.06707315;stroke:none;stroke-opacity:1"
       y="0"
       height="25"
       width="25"
       class="st1"
       x="933.62238"
       id="XMLID_11_" /><rect
       style="fill:#000000;fill-opacity:0.06707315;stroke:none;stroke-opacity:1"
       height="25"
       width="25"
       class="st1"
       y="29.999672"
       x="963.62268"
       id="XMLID_9_" /><rect
       style="fill:#000000;fill-opacity:0.06707315;stroke:none;stroke-opacity:1"
       height="25"
       width="25"
       class="st1"
       y="59.999672"
       x="993.62268"
       id="XMLID_8_" /><rect
       style="fill:#000000;fill-opacity:0.06707315;stroke:none;stroke-opacity:1"
       height="25"
       width="25"
       class="st1"
       y="89.999672"
       x="963.62268"
       id="XMLID_5_" /><rect
       style="fill:#000000;fill-opacity:0.06707315;stroke:none;stroke-opacity:1"
       height="25"
       width="25"
       class="st1"
       y="119.99967"
       x="933.62238"
       id="XMLID_3_" /></g><g
     transform="translate(250.00001,250)"
     id="XMLID_4_"
     style="fill:#000000;fill-opacity:0.06707315;stroke:none;stroke-opacity:1"><rect
       style="fill:#000000;fill-opacity:0.06707315;stroke:none;stroke-opacity:1"
       y="0"
       height="25"
       width="25"
       class="st0"
       x="183.62161"
       id="XMLID_130_" /><rect
       style="fill:#000000;fill-opacity:0.06707315;stroke:none;stroke-opacity:1"
       y="0"
       height="25"
       width="25"
       class="st0"
       x="213.62195"
       id="XMLID_129_" /><rect
       style="fill:#000000;fill-opacity:0.06707315;stroke:none;stroke-opacity:1"
       y="0"
       height="25"
       width="25"
       class="st0"
       x="243.62195"
       id="XMLID_128_" /><rect
       style="fill:#000000;fill-opacity:0.06707315;stroke:none;stroke-opacity:1"
       height="25"
       width="25"
       class="st0"
       y="29.999672"
       x="183.62161"
       id="XMLID_127_" /><rect
       style="fill:#000000;fill-opacity:0.06707315;stroke:none;stroke-opacity:1"
       height="25"
       width="25"
       class="st0"
       y="59.999672"
       x="183.62161"
       id="XMLID_126_" /><rect
       style="fill:#000000;fill-opacity:0.06707315;stroke:none;stroke-opacity:1"
       height="25"
       width="25"
       class="st0"
       y="59.999672"
       x="213.62195"
       id="XMLID_125_" /><rect
       style="fill:#000000;fill-opacity:0.06707315;stroke:none;stroke-opacity:1"
       height="25"
       width="25"
       class="st0"
       y="59.999672"
       x="243.62195"
       id="XMLID_124_" /><rect
       style="fill:#000000;fill-opacity:0.06707315;stroke:none;stroke-opacity:1"
       height="25"
       width="25"
       class="st0"
       y="89.999672"
       x="243.62195"
       id="XMLID_123_" /><rect
       style="fill:#000000;fill-opacity:0.06707315;stroke:none;stroke-opacity:1"
       height="25"
       width="25"
       class="st0"
       y="119.99967"
       x="183.62161"
       id="XMLID_122_" /><rect
       style="fill:#000000;fill-opacity:0.06707315;stroke:none;stroke-opacity:1"
       height="25"
       width="25"
       class="st0"
       y="119.99967"
       x="213.62195"
       id="XMLID_121_" /><rect
       style="fill:#000000;fill-opacity:0.06707315;stroke:none;stroke-opacity:1"
       height="25"
       width="25"
       class="st0"
       y="119.99967"
       x="243.62195"
       id="XMLID_120_" /><rect
       style="fill:#000000;fill-opacity:0.06707315;stroke:none;stroke-opacity:1"
       y="0"
       height="25"
       width="25"
       class="st0"
       x="308.62234"
       id="XMLID_119_" /><rect
       style="fill:#000000;fill-opacity:0.06707315;stroke:none;stroke-opacity:1"
       y="0"
       height="25"
       width="25"
       class="st0"
       x="338.62268"
       id="XMLID_118_" /><rect
       style="fill:#000000;fill-opacity:0.06707315;stroke:none;stroke-opacity:1"
       y="0"
       height="25"
       width="25"
       class="st0"
       x="368.62268"
       id="XMLID_117_" /><rect
       style="fill:#000000;fill-opacity:0.06707315;stroke:none;stroke-opacity:1"
       height="25"
       width="25"
       class="st0"
       y="29.999672"
       x="308.62234"
       id="XMLID_116_" /><rect
       style="fill:#000000;fill-opacity:0.06707315;stroke:none;stroke-opacity:1"
       height="25"
       width="25"
       class="st0"
       y="29.999672"
       x="368.62268"
       id="XMLID_115_" /><rect
       style="fill:#000000;fill-opacity:0.06707315;stroke:none;stroke-opacity:1"
       height="25"
       width="25"
       class="st0"
       y="59.999672"
       x="308.62234"
       id="XMLID_114_" /><rect
       style="fill:#000000;fill-opacity:0.06707315;stroke:none;stroke-opacity:1"
       height="25"
       width="25"
       class="st0"
       y="59.999672"
       x="368.62268"
       id="XMLID_113_" /><rect
       style="fill:#000000;fill-opacity:0.06707315;stroke:none;stroke-opacity:1"
       height="25"
       width="25"
       class="st0"
       y="89.999672"
       x="308.62234"
       id="XMLID_112_" /><rect
       style="fill:#000000;fill-opacity:0.06707315;stroke:none;stroke-opacity:1"
       height="25"
       width="25"
       class="st0"
       y="89.999672"
       x="368.62268"
       id="XMLID_111_" /><rect
       style="fill:#000000;fill-opacity:0.06707315;stroke:none;stroke-opacity:1"
       height="25"
       width="25"
       class="st0"
       y="119.99967"
       x="308.62234"
       id="XMLID_110_" /><rect
       style="fill:#000000;fill-opacity:0.06707315;stroke:none;stroke-opacity:1"
       height="25"
       width="25"
       class="st0"
       y="119.99967"
       x="338.62268"
       id="XMLID_109_" /><rect
       style="fill:#000000;fill-opacity:0.06707315;stroke:none;stroke-opacity:1"
       height="25"
       width="25"
       class="st0"
       y="119.99967"
       x="368.62268"
       id="XMLID_108_" /><rect
       style="fill:#000000;fill-opacity:0.06707315;stroke:none;stroke-opacity:1"
       y="0"
       height="25"
       width="25"
       class="st0"
       x="433.62234"
       id="XMLID_107_" /><rect
       style="fill:#000000;fill-opacity:0.06707315;stroke:none;stroke-opacity:1"
       y="0"
       height="25"
       width="25"
       class="st0"
       x="493.62268"
       id="XMLID_106_" /><rect
       style="fill:#000000;fill-opacity:0.06707315;stroke:none;stroke-opacity:1"
       height="25"
       width="25"
       class="st0"
       y="29.999672"
       x="433.62234"
       id="XMLID_105_" /><rect
       style="fill:#000000;fill-opacity:0.06707315;stroke:none;stroke-opacity:1"
       height="25"
       width="25"
       class="st0"
       y="29.999672"
       x="493.62268"
       id="XMLID_104_" /><rect
       style="fill:#000000;fill-opacity:0.06707315;stroke:none;stroke-opacity:1"
       height="25"
       width="25"
       class="st0"
       y="59.999672"
       x="433.62234"
       id="XMLID_103_" /><rect
       style="fill:#000000;fill-opacity:0.06707315;stroke:none;stroke-opacity:1"
       height="25"
       width="25"
       class="st0"
       y="59.999672"
       x="493.62268"
       id="XMLID_102_" /><rect
       style="fill:#000000;fill-opacity:0.06707315;stroke:none;stroke-opacity:1"
       height="25"
       width="25"
       class="st0"
       y="89.999672"
       x="433.62234"
       id="XMLID_101_" /><rect
       style="fill:#000000;fill-opacity:0.06707315;stroke:none;stroke-opacity:1"
       height="25"
       width="25"
       class="st0"
       y="89.999672"
       x="493.62268"
       id="XMLID_100_" /><rect
       style="fill:#000000;fill-opacity:0.06707315;stroke:none;stroke-opacity:1"
       height="25"
       width="25"
       class="st0"
       y="119.99967"
       x="433.62234"
       id="XMLID_99_" /><rect
       style="fill:#000000;fill-opacity:0.06707315;stroke:none;stroke-opacity:1"
       height="25"
       width="25"
       class="st0"
       y="119.99967"
       x="463.62268"
       id="XMLID_98_" /><rect
       style="fill:#000000;fill-opacity:0.06707315;stroke:none;stroke-opacity:1"
       height="25"
       width="25"
       class="st0"
       y="119.99967"
       x="493.62268"
       id="XMLID_97_" /><rect
       style="fill:#000000;fill-opacity:0.06707315;stroke:none;stroke-opacity:1"
       y="0"
       height="25"
       width="25"
       class="st0"
       x="558.62238"
       id="XMLID_96_" /><rect
       style="fill:#000000;fill-opacity:0.06707315;stroke:none;stroke-opacity:1"
       y="0"
       height="25"
       width="25"
       class="st0"
       x="588.62268"
       id="XMLID_95_" /><rect
       style="fill:#000000;fill-opacity:0.06707315;stroke:none;stroke-opacity:1"
       height="25"
       width="25"
       class="st0"
       y="29.999672"
       x="558.62238"
       id="XMLID_94_" /><rect
       style="fill:#000000;fill-opacity:0.06707315;stroke:none;stroke-opacity:1"
       height="25"
       width="25"
       class="st0"
       y="29.999672"
       x="618.62268"
       id="XMLID_91_" /><rect
       style="fill:#000000;fill-opacity:0.06707315;stroke:none;stroke-opacity:1"
       height="25"
       width="25"
       class="st0"
       y="59.999672"
       x="558.62238"
       id="XMLID_90_" /><rect
       style="fill:#000000;fill-opacity:0.06707315;stroke:none;stroke-opacity:1"
       height="25"
       width="25"
       class="st0"
       y="59.999672"
       x="588.62268"
       id="XMLID_88_" /><rect
       style="fill:#000000;fill-opacity:0.06707315;stroke:none;stroke-opacity:1"
       height="25"
       width="25"
       class="st0"
       y="89.999672"
       x="558.62238"
       id="XMLID_87_" /><rect
       style="fill:#000000;fill-opacity:0.06707315;stroke:none;stroke-opacity:1"
       height="25"
       width="25"
       class="st0"
       y="89.999672"
       x="618.62268"
       id="XMLID_86_" /><rect
       style="fill:#000000;fill-opacity:0.06707315;stroke:none;stroke-opacity:1"
       height="25"
       width="25"
       class="st0"
       y="119.99967"
       x="558.62238"
       id="XMLID_85_" /><rect
       style="fill:#000000;fill-opacity:0.06707315;stroke:none;stroke-opacity:1"
       height="25"
       width="25"
       class="st0"
       y="119.99967"
       x="618.62268"
       id="XMLID_66_" /><rect
       style="fill:#000000;fill-opacity:0.06707315;stroke:none;stroke-opacity:1"
       y="0"
       height="25"
       width="25"
       class="st0"
       x="713.62268"
       id="XMLID_65_" /><rect
       style="fill:#000000;fill-opacity:0.06707315;stroke:none;stroke-opacity:1"
       y="0"
       height="25"
       width="25"
       class="st0"
       x="743.62268"
       id="XMLID_63_" /><rect
       style="fill:#000000;fill-opacity:0.06707315;stroke:none;stroke-opacity:1"
       height="25"
       width="25"
       class="st0"
       y="29.999672"
       x="683.62238"
       id="XMLID_61_" /><rect
       style="fill:#000000;fill-opacity:0.06707315;stroke:none;stroke-opacity:1"
       height="25"
       width="25"
       class="st0"
       y="59.999672"
       x="683.62238"
       id="XMLID_59_" /><rect
       style="fill:#000000;fill-opacity:0.06707315;stroke:none;stroke-opacity:1"
       height="25"
       width="25"
       class="st0"
       y="89.999672"
       x="683.62238"
       id="XMLID_58_" /><rect
       style="fill:#000000;fill-opacity:0.06707315;stroke:none;stroke-opacity:1"
       height="25"
       width="25"
       class="st0"
       y="119.99967"
       x="713.62268"
       id="XMLID_56_" /><rect
       style="fill:#000000;fill-opacity:0.06707315;stroke:none;stroke-opacity:1"
       height="25"
       width="25"
       class="st0"
       y="119.99967"
       x="743.62268"
       id="XMLID_55_" /><rect
       style="fill:#000000;fill-opacity:0.06707315;stroke:none;stroke-opacity:1"
       y="0"
       height="25"
       width="25"
       class="st0"
       x="808.62238"
       id="XMLID_54_" /><rect
       style="fill:#000000;fill-opacity:0.06707315;stroke:none;stroke-opacity:1"
       y="0"
       height="25"
       width="25"
       class="st0"
       x="838.62268"
       id="XMLID_53_" /><rect
       style="fill:#000000;fill-opacity:0.06707315;stroke:none;stroke-opacity:1"
       y="0"
       height="25"
       width="25"
       class="st0"
       x="868.62268"
       id="XMLID_52_" /><rect
       style="fill:#000000;fill-opacity:0.06707315;stroke:none;stroke-opacity:1"
       height="25"
       width="25"
       class="st0"
       y="29.999672"
       x="808.62238"
       id="XMLID_49_" /><rect
       style="fill:#000000;fill-opacity:0.06707315;stroke:none;stroke-opacity:1"
       height="25"
       width="25"
       class="st0"
       y="59.999672"
       x="808.62238"
       id="XMLID_40_" /><rect
       style="fill:#000000;fill-opacity:0.06707315;stroke:none;stroke-opacity:1"
       height="25"
       width="25"
       class="st0"
       y="59.999672"
       x="838.62268"
       id="XMLID_37_" /><rect
       style="fill:#000000;fill-opacity:0.06707315;stroke:none;stroke-opacity:1"
       height="25"
       width="25"
       class="st0"
       y="89.999672"
       x="808.62238"
       id="XMLID_18_" /><rect
       style="fill:#000000;fill-opacity:0.06707315;stroke:none;stroke-opacity:1"
       height="25"
       width="25"
       class="st0"
       y="119.99967"
       x="808.62238"
       id="XMLID_17_" /><rect
       style="fill:#000000;fill-opacity:0.06707315;stroke:none;stroke-opacity:1"
       height="25"
       width="25"
       class="st0"
       y="119.99967"
       x="838.62268"
       id="XMLID_13_" /><rect
       style="fill:#000000;fill-opacity:0.06707315;stroke:none;stroke-opacity:1"
       height="25"
       width="25"
       class="st0"
       y="119.99967"
       x="868.62268"
       id="XMLID_12_" /></g></svg>